# xmcd
#
# Track frame offsets: 
#        150
#        14175
#        33825
#        52425
#        69526
#        86251
#        108750
#        159526
#        199804
#        286730
#
# Disc length: 4264 seconds
#
# Revision: 0
# Processed by: cddbd v1.5.1PL2 Copyright (c) Steve Scherf et al.
# Submitted via: ExactAudioCopy v0.95b3
#
DISCID=8710a60a
DTITLE=Allman Brothers - WPLJ-FM (A&R Studios) - 8.26.71
DYEAR=1971
DGENRE=Rock
TTITLE0=Dave Herman WPLJ-FM - A&R Studios - Intro
TTITLE1=Statesboro Blues
TTITLE2=Trouble No More
TTITLE3=Don't Keep Me Wondering
TTITLE4=Done Somebody Wrong
TTITLE5=One Way Out
TTITLE6=In Memory of Elizabeth Reed
TTITLE7=Stormy Monday
TTITLE8=You Don't Love Me - Soul Serenade - You Don't Love Me
TTITLE9=Hot 'Lanta
EXTD=
EXTT0=
EXTT1=
EXTT2=
EXTT3=
EXTT4=
EXTT5=
EXTT6=
EXTT7=
EXTT8=
EXTT9=
PLAYORDER=
